<?xml version="1.0" encoding="UTF-8" standalone="no"?>
<!DOCTYPE svg PUBLIC "-//W3C//DTD SVG 1.1//EN"
 "http://www.w3.org/Graphics/SVG/1.1/DTD/svg11.dtd">
<!-- Generated by graphviz version 12.1.0 (20240811.2233)
 -->
<!-- Pages: 1 -->
<svg width="814pt" height="128pt"
 viewBox="0.00 0.00 813.50 128.00" xmlns="http://www.w3.org/2000/svg" xmlns:xlink="http://www.w3.org/1999/xlink">
<g id="graph0" class="graph" transform="scale(1 1) rotate(0) translate(4 124)">
<polygon fill="white" stroke="none" points="-4,4 -4,-124 809.5,-124 809.5,4 -4,4"/>
<!-- 4574571584 -->
<g id="node1" class="node">
<title>4574571584</title>
<polygon fill="none" stroke="black" points="2.25,-83.5 2.25,-119.5 183,-119.5 183,-83.5 2.25,-83.5"/>
<text text-anchor="middle" x="12.12" y="-96.7" font-family="Times,serif" font-size="14.00"> </text>
<polyline fill="none" stroke="black" points="22,-84 22,-119.5"/>
<text text-anchor="middle" x="61.88" y="-96.7" font-family="Times,serif" font-size="14.00">data 3.0000</text>
<polyline fill="none" stroke="black" points="101.75,-84 101.75,-119.5"/>
<text text-anchor="middle" x="142.38" y="-96.7" font-family="Times,serif" font-size="14.00">grad 0.0000</text>
</g>
<!-- 4574570912* -->
<g id="node6" class="node">
<title>4574570912*</title>
<ellipse fill="none" stroke="black" cx="248.25" cy="-73.5" rx="27" ry="18"/>
<text text-anchor="middle" x="248.25" y="-68.45" font-family="Times,serif" font-size="14.00">*</text>
</g>
<!-- 4574571584&#45;&gt;4574570912* -->
<g id="edge4" class="edge">
<title>4574571584&#45;&gt;4574570912*</title>
<path fill="none" stroke="black" d="M183.43,-85.13C192.98,-83.39 202.26,-81.7 210.64,-80.17"/>
<polygon fill="black" stroke="black" points="211.14,-83.64 220.35,-78.4 209.89,-76.75 211.14,-83.64"/>
</g>
<!-- 4573248816 -->
<g id="node2" class="node">
<title>4573248816</title>
<polygon fill="none" stroke="black" points="624.75,-27.5 624.75,-63.5 805.5,-63.5 805.5,-27.5 624.75,-27.5"/>
<text text-anchor="middle" x="634.62" y="-40.7" font-family="Times,serif" font-size="14.00"> </text>
<polyline fill="none" stroke="black" points="644.5,-28 644.5,-63.5"/>
<text text-anchor="middle" x="684.38" y="-40.7" font-family="Times,serif" font-size="14.00">data 6.0000</text>
<polyline fill="none" stroke="black" points="724.25,-28 724.25,-63.5"/>
<text text-anchor="middle" x="764.88" y="-40.7" font-family="Times,serif" font-size="14.00">grad 0.0000</text>
</g>
<!-- 4573248816+ -->
<g id="node3" class="node">
<title>4573248816+</title>
<ellipse fill="none" stroke="black" cx="561.75" cy="-45.5" rx="27" ry="18"/>
<text text-anchor="middle" x="561.75" y="-40.45" font-family="Times,serif" font-size="14.00">+</text>
</g>
<!-- 4573248816+&#45;&gt;4573248816 -->
<g id="edge1" class="edge">
<title>4573248816+&#45;&gt;4573248816</title>
<path fill="none" stroke="black" d="M589.12,-45.5C596.26,-45.5 604.45,-45.5 613.14,-45.5"/>
<polygon fill="black" stroke="black" points="612.86,-49 622.86,-45.5 612.86,-42 612.86,-49"/>
</g>
<!-- 4574570336 -->
<g id="node4" class="node">
<title>4574570336</title>
<polygon fill="none" stroke="black" points="311.25,-0.5 311.25,-36.5 498.75,-36.5 498.75,-0.5 311.25,-0.5"/>
<text text-anchor="middle" x="321.12" y="-13.7" font-family="Times,serif" font-size="14.00"> </text>
<polyline fill="none" stroke="black" points="331,-1 331,-36.5"/>
<text text-anchor="middle" x="374.25" y="-13.7" font-family="Times,serif" font-size="14.00">data 12.0000</text>
<polyline fill="none" stroke="black" points="417.5,-1 417.5,-36.5"/>
<text text-anchor="middle" x="458.12" y="-13.7" font-family="Times,serif" font-size="14.00">grad 0.0000</text>
</g>
<!-- 4574570336&#45;&gt;4573248816+ -->
<g id="edge6" class="edge">
<title>4574570336&#45;&gt;4573248816+</title>
<path fill="none" stroke="black" d="M499.14,-34.75C507.9,-36.28 516.38,-37.76 524.09,-39.1"/>
<polygon fill="black" stroke="black" points="523.22,-42.51 533.68,-40.78 524.43,-35.61 523.22,-42.51"/>
</g>
<!-- 4574570912 -->
<g id="node5" class="node">
<title>4574570912</title>
<polygon fill="none" stroke="black" points="312.38,-55.5 312.38,-91.5 497.62,-91.5 497.62,-55.5 312.38,-55.5"/>
<text text-anchor="middle" x="322.25" y="-68.7" font-family="Times,serif" font-size="14.00"> </text>
<polyline fill="none" stroke="black" points="332.12,-56 332.12,-91.5"/>
<text text-anchor="middle" x="374.25" y="-68.7" font-family="Times,serif" font-size="14.00">data &#45;6.0000</text>
<polyline fill="none" stroke="black" points="416.38,-56 416.38,-91.5"/>
<text text-anchor="middle" x="457" y="-68.7" font-family="Times,serif" font-size="14.00">grad 0.0000</text>
</g>
<!-- 4574570912&#45;&gt;4573248816+ -->
<g id="edge3" class="edge">
<title>4574570912&#45;&gt;4573248816+</title>
<path fill="none" stroke="black" d="M497.81,-56.89C506.99,-55.23 515.89,-53.62 523.97,-52.15"/>
<polygon fill="black" stroke="black" points="524.45,-55.63 533.66,-50.4 523.2,-48.74 524.45,-55.63"/>
</g>
<!-- 4574570912*&#45;&gt;4574570912 -->
<g id="edge2" class="edge">
<title>4574570912*&#45;&gt;4574570912</title>
<path fill="none" stroke="black" d="M275.5,-73.5C282.92,-73.5 291.47,-73.5 300.57,-73.5"/>
<polygon fill="black" stroke="black" points="300.38,-77 310.38,-73.5 300.38,-70 300.38,-77"/>
</g>
<!-- 4564347344 -->
<g id="node7" class="node">
<title>4564347344</title>
<polygon fill="none" stroke="black" points="0,-28.5 0,-64.5 185.25,-64.5 185.25,-28.5 0,-28.5"/>
<text text-anchor="middle" x="9.88" y="-41.7" font-family="Times,serif" font-size="14.00"> </text>
<polyline fill="none" stroke="black" points="19.75,-29 19.75,-64.5"/>
<text text-anchor="middle" x="61.88" y="-41.7" font-family="Times,serif" font-size="14.00">data &#45;2.0000</text>
<polyline fill="none" stroke="black" points="104,-29 104,-64.5"/>
<text text-anchor="middle" x="144.62" y="-41.7" font-family="Times,serif" font-size="14.00">grad 0.0000</text>
</g>
<!-- 4564347344&#45;&gt;4574570912* -->
<g id="edge5" class="edge">
<title>4564347344&#45;&gt;4574570912*</title>
<path fill="none" stroke="black" d="M185.65,-62.67C194.39,-64.21 202.86,-65.7 210.58,-67.05"/>
<polygon fill="black" stroke="black" points="209.7,-70.45 220.16,-68.74 210.91,-63.56 209.7,-70.45"/>
</g>
</g>
</svg>
